<svg id="Layer_1" data-name="Layer 1" xmlns="http://www.w3.org/2000/svg" viewBox="0 0 500 500"><defs><style>.cls-1{fill:#fff;}.cls-2{opacity:0.15;}.cls-3{fill:#faae3b;}.cls-4{fill:none;stroke:#000;stroke-linecap:round;stroke-linejoin:round;stroke-width:20px;}.cls-5{fill:#513b2c;}</style></defs><title>french-press</title><path class="cls-1" d="M102.77,153.24h250a.45.45,0,0,1,.45.45V435.21A54.21,54.21,0,0,1,299,489.41H156.54a54.21,54.21,0,0,1-54.21-54.21V153.69A.45.45,0,0,1,102.77,153.24Z"/><path class="cls-2" d="M377.65,153.24H353.21V193.5h18.06a25.65,25.65,0,0,1,25.65,25.65V369.93a25.65,25.65,0,0,1-25.65,25.65H353.21v29.65a54,54,0,0,1-1.06,10.62h25.5a57,57,0,0,0,57-57V210.24A57,57,0,0,0,377.65,153.24Z"/><path class="cls-1" d="M377.65,153.24H353.21V193.5h18.06a25.65,25.65,0,0,1,25.65,25.65V369.93a25.65,25.65,0,0,1-25.65,25.65H353.21v29.65a54,54,0,0,1-1.06,10.62h25.5a57,57,0,0,0,57-57V210.24A57,57,0,0,0,377.65,153.24Z"/><path class="cls-1" d="M65.35,106.64H353.21a0,0,0,0,1,0,0v46.6a0,0,0,0,1,0,0H107.06a41.71,41.71,0,0,1-41.71-41.71v-4.9a0,0,0,0,1,0,0Z"/><rect class="cls-2" x="306.23" y="106.64" width="46.98" height="46.6"/><path class="cls-3" d="M150.15,57.57H305.39a47.82,47.82,0,0,1,47.82,47.82v1.25a0,0,0,0,1,0,0H102.33a0,0,0,0,1,0,0v-1.25a47.82,47.82,0,0,1,47.82-47.82Z"/><path class="cls-2" d="M306.6,57.57h-47c25.74,0,46.61,22,46.61,49.07h47C353.21,79.54,332.34,57.57,306.6,57.57Z"/><circle class="cls-3" cx="227.61" cy="32.27" r="21.69"/><line class="cls-4" x1="227.61" y1="157.09" x2="227.61" y2="325.45"/><path class="cls-2" d="M352.76,153.24h-47a.45.45,0,0,1,.45.45V435.2A54.21,54.21,0,0,1,252,489.41h47a54.21,54.21,0,0,0,54.21-54.21V153.69A.45.45,0,0,0,352.76,153.24Z"/><path class="cls-5" d="M156.54,489.41H299a54.21,54.21,0,0,0,54.21-54.21V321.33H102.33V435.2A54.21,54.21,0,0,0,156.54,489.41Z"/><path class="cls-4" d="M102.77,153.24h250a.45.45,0,0,1,.45.45V435.21A54.21,54.21,0,0,1,299,489.41H156.54a54.21,54.21,0,0,1-54.21-54.21V153.69A.45.45,0,0,1,102.77,153.24Z"/><path class="cls-4" d="M377.65,153.24H353.21V193.5h18.06a25.65,25.65,0,0,1,25.65,25.65V369.93a25.65,25.65,0,0,1-25.65,25.65H353.21v29.65a54,54,0,0,1-1.06,10.62h25.5a57,57,0,0,0,57-57V210.24A57,57,0,0,0,377.65,153.24Z"/><path class="cls-4" d="M65.35,106.64H353.21a0,0,0,0,1,0,0v46.6a0,0,0,0,1,0,0H107.06a41.71,41.71,0,0,1-41.71-41.71v-4.9a0,0,0,0,1,0,0Z"/><path class="cls-4" d="M150.15,57.57H305.39a47.82,47.82,0,0,1,47.82,47.82v1.25a0,0,0,0,1,0,0H102.33a0,0,0,0,1,0,0v-1.25a47.82,47.82,0,0,1,47.82-47.82Z"/><circle class="cls-4" cx="227.61" cy="32.27" r="21.69"/><path class="cls-4" d="M156.54,489.41H299a54.21,54.21,0,0,0,54.21-54.21V321.33H102.33V435.2A54.21,54.21,0,0,0,156.54,489.41Z"/></svg>