<svg id="Layer_1" data-name="Layer 1" xmlns="http://www.w3.org/2000/svg" viewBox="0 0 500 500"><defs><style>.cls-1{fill:#b3814b;}.cls-2{opacity:0.15;}.cls-3{fill:#fff;}.cls-4,.cls-5,.cls-7{fill:none;stroke:#000;stroke-linecap:round;stroke-linejoin:round;}.cls-4{stroke-width:24.32px;}.cls-5{stroke-width:20.09px;}.cls-6{fill:#513b2c;}.cls-7{stroke-width:20px;}</style></defs><title>Artboard 12</title><polygon class="cls-1" points="322.85 155.26 174.55 155.26 146.03 92.13 351.37 92.13 322.85 155.26"/><polygon class="cls-1" points="322.85 155.26 174.55 155.26 146.03 218.4 351.37 218.4 322.85 155.26"/><polygon class="cls-2" points="303.23 92.13 274.71 155.26 322.85 155.26 351.37 92.13 303.23 92.13"/><polygon class="cls-2" points="322.85 155.26 274.71 155.26 303.23 218.4 351.37 218.4 322.85 155.26"/><polygon class="cls-3" points="122.39 11.07 169.3 92.13 328.11 92.13 375.01 11.07 122.39 11.07"/><polygon class="cls-2" points="326.88 11.07 279.97 92.13 328.11 92.13 375.01 11.07 326.88 11.07"/><path class="cls-3" d="M332.23,218.39H165.17L96.85,384.31c-13.74,34.76,11.87,72.44,49.26,72.44H351.3c37.38,0,63-37.68,49.25-72.44Z"/><path class="cls-3" d="M333.8,488.93H163.6c-12.55,0-22.72-18.2-22.72-32.18H356.53C356.53,470.73,346.35,488.93,333.8,488.93Z"/><path class="cls-2" d="M313.3,456.75c0,14-10.17,32.18-22.72,32.18H333.8c12.55,0,22.73-18.2,22.73-32.18Z"/><circle class="cls-4" cx="350.8" cy="155.31" r="22.7"/><path class="cls-5" d="M373.5,229.12s13.35-26.32-6.87-57.51c0,0,46,21.18,39.68,73.31"/><path class="cls-6" d="M96.85,384.31c-13.74,34.76,11.87,72.44,49.26,72.44H351.3c37.38,0,63-37.68,49.25-72.44l-20.9-50.77H117.76Z"/><path class="cls-2" d="M400.55,384.31,332.23,218.39H284.09l68.32,165.92c13.75,34.76-11.87,72.44-49.25,72.44H351.3C388.68,456.75,414.3,419.07,400.55,384.31Z"/><polygon class="cls-7" points="322.85 155.26 174.55 155.26 146.03 92.13 351.37 92.13 322.85 155.26"/><polygon class="cls-7" points="322.85 155.26 174.55 155.26 146.03 218.4 351.37 218.4 322.85 155.26"/><polygon class="cls-7" points="122.39 11.07 169.3 92.13 328.11 92.13 375.01 11.07 122.39 11.07"/><path class="cls-7" d="M332.23,218.39H165.17L96.85,384.31c-13.74,34.76,11.87,72.44,49.26,72.44H351.3c37.38,0,63-37.68,49.25-72.44Z"/><path class="cls-7" d="M333.8,488.93H163.6c-12.55,0-22.72-18.2-22.72-32.18H356.53C356.53,470.73,346.35,488.93,333.8,488.93Z"/><path class="cls-7" d="M96.85,384.31c-13.74,34.76,11.87,72.44,49.26,72.44H351.3c37.38,0,63-37.68,49.25-72.44l-20.9-50.77H117.76Z"/></svg>